<svg width="1024" height="1024" viewBox="0 0 1024 1024" fill="none" xmlns="http://www.w3.org/2000/svg">
  <!-- BraidR Adaptive Icon for Android - Replace with actual design -->
  <rect width="1024" height="1024" fill="#FFFFFF"/>
  
  <!-- Main Icon Content (within safe area) -->
  <g transform="translate(162, 162)">
    <circle cx="350" cy="300" r="100" fill="#8B5CF6"/>
    <circle cx="350" cy="270" r="60" fill="#F3E8FF"/>
    
    <!-- Braided Pattern -->
    <path d="M250 350 Q300 370 350 350 Q400 370 450 350 Q400 390 350 370 Q300 390 250 350" fill="#A855F7" stroke="#7C3AED" stroke-width="3"/>
    <path d="M270 370 Q320 390 370 370 Q420 390 470 370 Q420 410 370 390 Q320 410 270 370" fill="#A855F7" stroke="#7C3AED" stroke-width="3"/>
    <path d="M290 390 Q340 410 390 390 Q440 410 490 390 Q440 430 390 410 Q340 430 290 390" fill="#A855F7" stroke="#7C3AED" stroke-width="3"/>
    
    <!-- App Initial -->
    <text x="350" y="550" font-family="Arial, sans-serif" font-size="120" font-weight="bold" text-anchor="middle" fill="#8B5CF6">B</text>
  </g>
</svg>