<svg width="1242" height="2436" viewBox="0 0 1242 2436" fill="none" xmlns="http://www.w3.org/2000/svg">
  <!-- BraidR Splash Screen - Replace with actual design -->
  <rect width="1242" height="2436" fill="#FFFFFF"/>
  
  <!-- Gradient Background -->
  <defs>
    <linearGradient id="gradient" x1="0%" y1="0%" x2="100%" y2="100%">
      <stop offset="0%" style="stop-color:#8B5CF6;stop-opacity:0.1" />
      <stop offset="100%" style="stop-color:#A855F7;stop-opacity:0.2" />
    </linearGradient>
  </defs>
  <rect width="1242" height="2436" fill="url(#gradient)"/>
  
  <!-- Main Logo -->
  <circle cx="621" cy="1000" r="150" fill="#8B5CF6"/>
  <circle cx="621" cy="950" r="80" fill="#F3E8FF"/>
  
  <!-- Braided Hair Pattern -->
  <path d="M500 1100 Q550 1120 600 1100 Q650 1120 700 1100 Q650 1140 600 1120 Q550 1140 500 1100" fill="#A855F7" stroke="#7C3AED" stroke-width="3"/>
  <path d="M520 1120 Q570 1140 620 1120 Q670 1140 720 1120 Q670 1160 620 1140 Q570 1160 520 1120" fill="#A855F7" stroke="#7C3AED" stroke-width="3"/>
  <path d="M540 1140 Q590 1160 640 1140 Q690 1160 740 1140 Q690 1180 640 1160 Q590 1180 540 1140" fill="#A855F7" stroke="#7C3AED" stroke-width="3"/>
  
  <!-- App Name -->
  <text x="621" y="1350" font-family="Arial, sans-serif" font-size="120" font-weight="bold" text-anchor="middle" fill="#8B5CF6">BraidR</text>
  <text x="621" y="1450" font-family="Arial, sans-serif" font-size="40" text-anchor="middle" fill="#6B7280">Professional Braiding Services</text>
  
  <!-- Loading Animation Placeholder -->
  <circle cx="621" cy="1600" r="20" fill="#8B5CF6" opacity="0.8">
    <animate attributeName="opacity" values="0.8;0.2;0.8" dur="1.5s" repeatCount="indefinite"/>
  </circle>
  <circle cx="571" cy="1600" r="15" fill="#A855F7" opacity="0.6">
    <animate attributeName="opacity" values="0.6;0.1;0.6" dur="1.5s" begin="0.2s" repeatCount="indefinite"/>
  </circle>
  <circle cx="671" cy="1600" r="15" fill="#A855F7" opacity="0.6">
    <animate attributeName="opacity" values="0.6;0.1;0.6" dur="1.5s" begin="0.4s" repeatCount="indefinite"/>
  </circle>
</svg>